<mxfile host="app.diagrams.net" agent="Mozilla/5.0 (X11; Linux x86_64) AppleWebKit/537.36 (KHTML, like Gecko) Chrome/128.0.0.0 Safari/537.36" version="24.7.16">
  <diagram name="Page-1" id="90a13364-a465-7bf4-72fc-28e22215d7a0">
    <mxGraphModel dx="1368" dy="751" grid="1" gridSize="10" guides="1" tooltips="1" connect="1" arrows="1" fold="1" page="1" pageScale="1.5" pageWidth="1169" pageHeight="826" background="none" math="0" shadow="0">
      <root>
        <mxCell id="0" style=";html=1;" />
        <mxCell id="1" style=";html=1;" parent="0" />
        <mxCell id="YFY-n2L7CjVdRe2MK9ue-2" value="" style="ellipse;whiteSpace=wrap;html=1;aspect=fixed;" parent="1" vertex="1">
          <mxGeometry x="800" y="315" width="80" height="80" as="geometry" />
        </mxCell>
        <mxCell id="YFY-n2L7CjVdRe2MK9ue-3" value="" style="ellipse;whiteSpace=wrap;html=1;aspect=fixed;" parent="1" vertex="1">
          <mxGeometry x="957" y="315" width="80" height="80" as="geometry" />
        </mxCell>
        <mxCell id="YFY-n2L7CjVdRe2MK9ue-4" value="" style="ellipse;whiteSpace=wrap;html=1;aspect=fixed;" parent="1" vertex="1">
          <mxGeometry x="957" y="475" width="80" height="80" as="geometry" />
        </mxCell>
        <mxCell id="YFY-n2L7CjVdRe2MK9ue-5" value="" style="ellipse;whiteSpace=wrap;html=1;aspect=fixed;" parent="1" vertex="1">
          <mxGeometry x="800" y="475" width="80" height="80" as="geometry" />
        </mxCell>
        <mxCell id="YFY-n2L7CjVdRe2MK9ue-6" value="" style="rounded=0;whiteSpace=wrap;html=1;rotation=45;" parent="1" vertex="1">
          <mxGeometry x="847.07" y="422.07" width="140" height="30" as="geometry" />
        </mxCell>
        <mxCell id="YFY-n2L7CjVdRe2MK9ue-7" value="" style="rounded=0;whiteSpace=wrap;html=1;rotation=-225;" parent="1" vertex="1">
          <mxGeometry x="847.0699999999999" y="422.07" width="140" height="30" as="geometry" />
        </mxCell>
        <mxCell id="YFY-n2L7CjVdRe2MK9ue-8" value="" style="whiteSpace=wrap;html=1;aspect=fixed;" parent="1" vertex="1">
          <mxGeometry x="877" y="397.07" width="80" height="80" as="geometry" />
        </mxCell>
        <mxCell id="fp4r6dFeIlI3JQf5IHSI-1" value="" style="whiteSpace=wrap;html=1;aspect=fixed;" vertex="1" parent="1">
          <mxGeometry x="310" y="280" width="310" height="310" as="geometry" />
        </mxCell>
        <mxCell id="fp4r6dFeIlI3JQf5IHSI-2" value="" style="rounded=0;whiteSpace=wrap;html=1;" vertex="1" parent="1">
          <mxGeometry x="320" y="293.97" width="20" height="20" as="geometry" />
        </mxCell>
        <mxCell id="fp4r6dFeIlI3JQf5IHSI-3" value="" style="rounded=0;whiteSpace=wrap;html=1;" vertex="1" parent="1">
          <mxGeometry x="320" y="326.03999999999996" width="20" height="20" as="geometry" />
        </mxCell>
        <mxCell id="fp4r6dFeIlI3JQf5IHSI-4" value="IndoorMap Module" style="whiteSpace=wrap;html=1;shadow=1;fontSize=18;fillColor=#f5f5f5;strokeColor=#666666;" vertex="1" parent="1">
          <mxGeometry x="350" y="293.97" width="120" height="100" as="geometry" />
        </mxCell>
        <mxCell id="fp4r6dFeIlI3JQf5IHSI-5" value="ElevationMap&lt;div&gt;Module&lt;/div&gt;" style="whiteSpace=wrap;html=1;shadow=1;fontSize=18;fillColor=#f5f5f5;strokeColor=#666666;" vertex="1" parent="1">
          <mxGeometry x="350" y="407.07" width="120" height="80" as="geometry" />
        </mxCell>
        <mxCell id="fp4r6dFeIlI3JQf5IHSI-6" value="Artificial Horizon&lt;div&gt;&lt;div&gt;Module&lt;/div&gt;&lt;/div&gt;" style="whiteSpace=wrap;html=1;shadow=1;fontSize=18;fillColor=#f5f5f5;strokeColor=#666666;" vertex="1" parent="1">
          <mxGeometry x="480" y="296.04" width="120" height="80" as="geometry" />
        </mxCell>
        <mxCell id="fp4r6dFeIlI3JQf5IHSI-7" value="Another Custom&lt;div&gt;Module&lt;/div&gt;" style="whiteSpace=wrap;html=1;shadow=1;fontSize=18;fillColor=#f5f5f5;strokeColor=#666666;" vertex="1" parent="1">
          <mxGeometry x="480" y="410" width="120" height="80" as="geometry" />
        </mxCell>
        <mxCell id="fp4r6dFeIlI3JQf5IHSI-9" value="" style="endArrow=classic;html=1;rounded=0;exitX=0.994;exitY=0.523;exitDx=0;exitDy=0;exitPerimeter=0;entryX=0;entryY=0.5;entryDx=0;entryDy=0;" edge="1" parent="1" source="fp4r6dFeIlI3JQf5IHSI-1" target="YFY-n2L7CjVdRe2MK9ue-8">
          <mxGeometry width="50" height="50" relative="1" as="geometry">
            <mxPoint x="670" y="410" as="sourcePoint" />
            <mxPoint x="720" y="360" as="targetPoint" />
          </mxGeometry>
        </mxCell>
      </root>
    </mxGraphModel>
  </diagram>
</mxfile>
